<svg width="212" height="25" viewBox="0 0 212 25" fill="none" xmlns="http://www.w3.org/2000/svg">
<path d="M19.7268 11.7142V24.1853H12.1156C8.99061 24.1915 5.98455 22.9877 3.72773 20.8262C1.47091 18.6646 0.138627 15.7132 0.0102212 12.5909C-0.118184 9.46854 0.96728 6.41773 3.03899 4.07817C5.1107 1.73861 8.00776 0.292011 11.1227 0.041691L11.5234 0.00878906V5.43384L11.1885 5.46375C9.48872 5.62555 7.91644 6.43543 6.79779 7.72539C5.67914 9.01535 5.09995 10.6864 5.18035 12.392C5.26074 14.0975 5.99456 15.7067 7.22959 16.8857C8.46462 18.0647 10.1061 18.7231 11.8135 18.7243H14.3018V11.7142H19.7268Z" fill="#FF8100"/>
<path d="M38.6955 12.0912C38.6955 15.2988 37.4213 18.375 35.1532 20.6431C32.8851 22.9112 29.8089 24.1854 26.6013 24.1854H22.5041V18.7185H26.9004C28.6628 18.7185 30.3531 18.0184 31.5993 16.7722C32.8455 15.5259 33.5456 13.8357 33.5456 12.0733C33.5456 10.3109 32.8455 8.62061 31.5993 7.37439C30.3531 6.12817 28.6628 5.42804 26.9004 5.42804H14.3008V0H26.6013C29.8072 0.0039553 32.8806 1.27902 35.1478 3.54562C37.4149 5.81222 38.6908 8.88537 38.6955 12.0912Z" fill="#FF8100"/>
<path d="M67.6293 17.6958V12.0763H72.0047V22.0591H65.3295C59.6473 22.0591 55.3438 17.6838 55.3438 11.8909C55.3438 6.09799 59.4529 2.10547 65.3295 2.10547H72.0047V6.48678H65.3325C62.0936 6.48678 59.8297 8.77463 59.8297 12.0494C59.8297 15.3242 62.1355 17.6958 65.3385 17.6958H67.6293Z" fill="white"/>
<path d="M111.026 2.09668L105.107 14.6185L99.1857 2.09668H94.4844V22.0593H98.9225V11.4365L104.102 22.0593H105.867L111.041 11.5711V22.0593H115.47V2.09668H111.026Z" fill="white"/>
<path d="M139.519 2.09668H133.238V22.0593H139.519C146.209 22.0593 150.883 17.9292 150.883 12.0167C150.88 6.17594 146.209 2.09668 139.519 2.09668ZM139.552 18.1655H137.712V6.03238H139.552C143.643 6.03238 146.391 8.46677 146.391 12.0885C146.391 15.7101 143.643 18.1655 139.552 18.1655Z" fill="white"/>
<path d="M164.265 1.91699V14.4927C164.265 16.6549 162.704 18.1652 160.464 18.1652C158.224 18.1652 156.753 16.6908 156.753 14.4927V1.91699H152.297V14.4927C152.297 20.0763 156.711 22.0591 160.497 22.0591C165.495 22.0591 168.725 19.0893 168.725 14.4927V1.91699H164.265Z" fill="white"/>
<path d="M211.37 16.0086C211.37 19.6842 209.172 22.0587 205.768 22.0587H198.292V18.123H205.768C206.994 18.123 207.817 17.2647 207.817 15.9877C207.817 14.7107 207.012 13.9152 205.768 13.9152H202.362C199.969 13.9152 198.106 12.7189 197.257 10.5986C196.918 9.72774 196.75 8.79955 196.763 7.8651C196.731 6.42352 197.167 5.01028 198.004 3.83669C198.997 2.52678 200.502 1.83594 202.362 1.83594H209.853V5.77164H202.362C201.118 5.77164 200.313 6.5851 200.313 7.84416C200.313 9.10323 201.136 9.9765 202.362 9.9765H205.768C208.194 9.9765 210.006 11.1548 210.852 13.2931C211.195 14.1575 211.37 15.0789 211.37 16.0086Z" fill="white"/>
<path d="M190.028 18.1356V2.09668H185.602V22.0593H196.933V18.1356H190.028Z" fill="white"/>
<path d="M88.4554 22.0593H93.1358L85.6591 2.09668H80.6797L73.2539 22.0593H77.9342L79.1575 18.4346H87.1933L88.4554 22.0593ZM83.15 6.85481L85.6561 14.0533H80.6797L83.15 6.85481Z" fill="white"/>
<path d="M121.524 18.1356V14.0593H128.082V9.67799H121.524V6.02042H130.705V2.09668H117.098V22.0593H130.917V18.1356H121.524Z" fill="white"/>
<path d="M174.793 18.0037V13.9304H181.352V9.54914H174.793V5.88858H183.975V1.96484H170.367V21.9275H184.187V18.0037H174.793Z" fill="white"/>
</svg>
