<svg width="270" height="72" viewBox="0 0 270 72" fill="none" xmlns="http://www.w3.org/2000/svg">
<path d="M37.9426 35.6784V49.7083H29.38C25.8644 49.7154 22.4826 48.361 19.9437 45.9293C17.4048 43.4976 15.906 40.1773 15.7615 36.6646C15.617 33.152 16.8382 29.7198 19.1689 27.0878C21.4995 24.4558 24.7587 22.8284 28.263 22.5468L28.7139 22.5098V28.6129L28.337 28.6466C26.4248 28.8286 24.656 29.7397 23.3975 31.1909C22.139 32.6421 21.4874 34.5221 21.5779 36.4408C21.6683 38.3596 22.4939 40.1699 23.8833 41.4963C25.2727 42.8227 27.1193 43.5634 29.0402 43.5647H31.8395V35.6784H37.9426Z" fill="#FF8100"/>
<path d="M59.2839 36.1026C59.2839 39.7112 57.8504 43.1719 55.2988 45.7235C52.7472 48.2751 49.2865 49.7086 45.678 49.7086H41.0686V43.5583H46.0144C47.9972 43.5583 49.8987 42.7707 51.3007 41.3687C52.7027 39.9667 53.4903 38.0652 53.4903 36.0824C53.4903 34.0997 52.7027 32.1982 51.3007 30.7962C49.8987 29.3942 47.9972 28.6066 46.0144 28.6066H31.8398V22.5H45.678C49.2846 22.5044 52.7422 23.9389 55.2927 26.4888C57.8433 29.0388 59.2786 32.496 59.2839 36.1026Z" fill="#FF8100"/>
<path d="M91.835 42.4077V36.0858H96.7572V47.3165H89.2477C82.8552 47.3165 78.0137 42.3943 78.0137 35.8773C78.0137 29.3602 82.6365 24.8687 89.2477 24.8687H96.7572V29.7976H89.251C85.6073 29.7976 83.0604 32.3715 83.0604 36.0556C83.0604 39.7397 85.6544 42.4077 89.2578 42.4077H91.835Z" fill="white"/>
<path d="M140.654 24.8589L133.996 38.946L127.334 24.8589H122.045V47.3168H127.038V35.3662L132.865 47.3168H134.85L140.671 35.5176V47.3168H145.654V24.8589H140.654Z" fill="white"/>
<path d="M172.707 24.8589H165.642V47.3168H172.707C180.233 47.3168 185.492 42.6705 185.492 36.0189C185.489 29.448 180.233 24.8589 172.707 24.8589ZM172.744 42.9363H170.675V29.2866H172.744C177.347 29.2866 180.439 32.0252 180.439 36.0996C180.439 40.174 177.347 42.9363 172.744 42.9363Z" fill="white"/>
<path d="M200.548 24.6567V38.8044C200.548 41.2369 198.791 42.936 196.271 42.936C193.751 42.936 192.096 41.2773 192.096 38.8044V24.6567H187.083V38.8044C187.083 45.0859 192.049 47.3166 196.308 47.3166C201.93 47.3166 205.564 43.9756 205.564 38.8044V24.6567H200.548Z" fill="white"/>
<path d="M253.542 40.5097C253.542 44.6447 251.069 47.3161 247.241 47.3161H238.829V42.8884H247.241C248.62 42.8884 249.545 41.9228 249.545 40.4862C249.545 39.0495 248.64 38.1546 247.241 38.1546H243.409C240.717 38.1546 238.621 36.8088 237.665 34.4234C237.284 33.4437 237.095 32.3995 237.11 31.3482C237.074 29.7265 237.564 28.1366 238.507 26.8163C239.624 25.3426 241.316 24.5654 243.409 24.5654H251.837V28.9931H243.409C242.009 28.9931 241.104 29.9082 241.104 31.3247C241.104 32.7411 242.029 33.7236 243.409 33.7236H247.241C249.969 33.7236 252.008 35.0492 252.96 37.4548C253.346 38.4272 253.543 39.4638 253.542 40.5097Z" fill="white"/>
<path d="M229.533 42.9026V24.8589H224.554V47.3168H237.302V42.9026H229.533Z" fill="white"/>
<path d="M115.262 47.3168H120.527L112.116 24.8589H106.514L98.1602 47.3168H103.426L104.802 43.2391H113.842L115.262 47.3168ZM109.293 30.2118L112.113 38.3101H106.514L109.293 30.2118Z" fill="white"/>
<path d="M152.463 42.9026V38.3168H159.841V33.3879H152.463V29.2731H162.792V24.8589H147.483V47.3168H163.031V42.9026H152.463Z" fill="white"/>
<path d="M212.392 42.7542V38.1718H219.77V33.2428H212.392V29.1247H222.721V24.7104H207.412V47.1684H222.959V42.7542H212.392Z" fill="white"/>
</svg>
